<svg xmlns="http://www.w3.org/2000/svg" viewBox="0 0 64 64"><defs><style>.cls-1{fill:#e1e4ed;}.cls-2{fill:#ade1fa;}.cls-3{fill:#cdd2e1;}.cls-4{fill:#8ed8f8;}.cls-5{fill:#d4effc;}.cls-6{fill:#5ce0bf;}.cls-7{fill:#4fd3b2;}.cls-8{fill:#393045;}</style></defs><title>03-time</title><g id="_03-time" data-name="03-time"><path class="cls-1" d="M50,55v4a4,4,0,0,1-4,4H18a4,4,0,0,1-4-4V55Z"/><path class="cls-1" d="M50,5V9H14V5a4,4,0,0,1,4-4H46A4,4,0,0,1,50,5Z"/><rect class="cls-2" x="14" y="9" width="36" height="46"/><path class="cls-3" d="M20,59V55H14v4a4,4,0,0,0,4,4h6A4,4,0,0,1,20,59Z"/><path class="cls-3" d="M24,1H18a4,4,0,0,0-4,4V9h6V5A4,4,0,0,1,24,1Z"/><rect class="cls-4" x="14" y="9" width="6" height="46"/><rect class="cls-5" x="46" y="9" width="4" height="46"/><circle class="cls-3" cx="32" cy="32" r="14"/><circle class="cls-6" cx="32" cy="32" r="10"/><path class="cls-7" d="M32,22a10,10,0,0,0-9.637,7.363A9.971,9.971,0,0,1,34.637,41.637,9.995,9.995,0,0,0,32,22Z"/><path class="cls-8" d="M46,0H18a5.006,5.006,0,0,0-5,5V59a5.006,5.006,0,0,0,5,5H46a5.006,5.006,0,0,0,5-5V5A5.006,5.006,0,0,0,46,0ZM18,2H46a3,3,0,0,1,3,3V8H15V5A3,3,0,0,1,18,2Zm31,8V54H15V10ZM46,62H18a3,3,0,0,1-3-3V56H49v3A3,3,0,0,1,46,62Z"/><rect class="cls-8" x="28" y="58" width="8" height="2"/><rect class="cls-8" x="28" y="4" width="8" height="2"/><path class="cls-8" d="M32,47A15,15,0,1,0,17,32,15.017,15.017,0,0,0,32,47Zm0-28A13,13,0,1,1,19,32,13.015,13.015,0,0,1,32,19Z"/><path class="cls-8" d="M32,43A11,11,0,1,0,21,32,11.013,11.013,0,0,0,32,43ZM23.059,31a8.956,8.956,0,0,1,1.916-4.611l2.075,2.075,1.414-1.414-2.075-2.075A8.956,8.956,0,0,1,31,23.059V26h2V23.059a8.956,8.956,0,0,1,4.611,1.916L35.535,27.05l1.414,1.414,2.076-2.075A8.956,8.956,0,0,1,40.941,31H38v2h2.941a8.956,8.956,0,0,1-1.916,4.611l-2.076-2.075L35.535,36.95l2.076,2.075A8.956,8.956,0,0,1,33,40.941V38H31v2.941a8.956,8.956,0,0,1-4.611-1.916l2.075-2.075L27.05,35.536l-2.075,2.075A8.956,8.956,0,0,1,23.059,33H26V31Z"/><path class="cls-8" d="M34.293,35.707l1.414-1.414L33,31.586V28H31v4a1,1,0,0,0,.293.707Z"/></g></svg>